<svg xmlns="http://www.w3.org/2000/svg">
  <defs>
    <symbol id="growth-sprout" viewBox="0 0 24 24"><path d="M12 20V10" fill="none" stroke="currentColor" stroke-width="1.8" stroke-linecap="round" stroke-linejoin="round"/><path d="M12 10H8a4 4 0 0 1-4-4V4h4a4 4 0 0 1 4 4v2Z" fill="none" stroke="currentColor" stroke-width="1.8" stroke-linecap="round" stroke-linejoin="round"/><path d="M12 12h4a4 4 0 0 0 4-4V6h-4a4 4 0 0 0-4 4v2Z" fill="none" stroke="currentColor" stroke-width="1.8" stroke-linecap="round" stroke-linejoin="round"/></symbol>
    <symbol id="growth-bloom" viewBox="0 0 24 24"><path d="M12 21v-6M8 14h8" fill="none" stroke="currentColor" stroke-width="1.8" stroke-linecap="round"/><path d="M12 8H9a4 4 0 0 1-4-4V2h4a5 5 0 0 1 5 5v1h-2Z" fill="none" stroke="currentColor" stroke-width="1.8" stroke-linecap="round" stroke-linejoin="round"/><path d="M12 8h3a4 4 0 0 0 4-4V2h-4a5 5 0 0 0-5 5v1h2Z" fill="none" stroke="currentColor" stroke-width="1.8" stroke-linecap="round" stroke-linejoin="round"/></symbol>
    <symbol id="letter-fold" viewBox="0 0 24 24"><path d="M4 7a2 2 0 0 1 2-2h12a2 2 0 0 1 2 2v10a2 2 0 0 1-2 2H6a2 2 0 0 1-2-2V7Z" fill="none" stroke="currentColor" stroke-width="1.8" stroke-linecap="round" stroke-linejoin="round"/><path d="m5 7 7 6 7-6M5.5 18l5-5M18.5 18l-5-5" fill="none" stroke="currentColor" stroke-width="1.8" stroke-linecap="round" stroke-linejoin="round"/></symbol>
    <symbol id="letter-self" viewBox="0 0 24 24"><path d="M6 3h9l3 3v15H6V3Z" fill="none" stroke="currentColor" stroke-width="1.8" stroke-linecap="round" stroke-linejoin="round"/><path d="M15 3v4h4M9 11h6M9 15h4" fill="none" stroke="currentColor" stroke-width="1.8" stroke-linecap="round" stroke-linejoin="round"/></symbol>
    <symbol id="story-book" viewBox="0 0 24 24"><path d="M5 4h6a3 3 0 0 1 3 3v13a3 3 0 0 0-3-3H5V4Z" fill="none" stroke="currentColor" stroke-width="1.8" stroke-linecap="round" stroke-linejoin="round"/><path d="M19 4h-5a3 3 0 0 0-3 3v13a3 3 0 0 1 3-3h5V4ZM8 8h3M16 8h1" fill="none" stroke="currentColor" stroke-width="1.8" stroke-linecap="round" stroke-linejoin="round"/></symbol>
    <symbol id="story-bookmark" viewBox="0 0 24 24"><path d="M7 4h10a2 2 0 0 1 2 2v15l-7-4-7 4V6a2 2 0 0 1 2-2Z" fill="none" stroke="currentColor" stroke-width="1.8" stroke-linecap="round" stroke-linejoin="round"/><path d="M9 8h6" fill="none" stroke="currentColor" stroke-width="1.8" stroke-linecap="round"/></symbol>
    <symbol id="money-coin" viewBox="0 0 24 24"><path d="M8 12.5a4.5 4.5 0 1 0 0-9 4.5 4.5 0 0 0 0 9Z" fill="none" stroke="currentColor" stroke-width="1.8" stroke-linecap="round" stroke-linejoin="round"/><path d="M16 20.5a4.5 4.5 0 1 0 0-9 4.5 4.5 0 0 0 0 9Z" fill="none" stroke="currentColor" stroke-width="1.8" stroke-linecap="round" stroke-linejoin="round"/><path d="M14 5h4v4M18 5l-5 5M10 19H6v-4M6 19l5-5" fill="none" stroke="currentColor" stroke-width="1.8" stroke-linecap="round" stroke-linejoin="round"/></symbol>
    <symbol id="money-wallet" viewBox="0 0 24 24"><path d="M4 7a3 3 0 0 1 3-3h10v4H7a3 3 0 0 0-3 3v6a3 3 0 0 0 3 3h13V8H7" fill="none" stroke="currentColor" stroke-width="1.8" stroke-linecap="round" stroke-linejoin="round"/><path d="M16 13h4" fill="none" stroke="currentColor" stroke-width="1.8" stroke-linecap="round"/></symbol>
    <symbol id="home-house" viewBox="0 0 24 24"><path d="M4 11 12 4l8 7" fill="none" stroke="currentColor" stroke-width="1.8" stroke-linecap="round" stroke-linejoin="round"/><path d="M6 10v10h12V10M10 20v-5h4v5" fill="none" stroke="currentColor" stroke-width="1.8" stroke-linecap="round" stroke-linejoin="round"/></symbol>
    <symbol id="home-shared" viewBox="0 0 24 24"><path d="M3 11 9 5l6 6M9 5v15H5v-8" fill="none" stroke="currentColor" stroke-width="1.8" stroke-linecap="round" stroke-linejoin="round"/><path d="M11 11 17 5l4 4M17 5v15h-4" fill="none" stroke="currentColor" stroke-width="1.8" stroke-linecap="round" stroke-linejoin="round"/></symbol>
    <symbol id="direction-compass" viewBox="0 0 24 24"><path d="M12 21a9 9 0 1 0 0-18 9 9 0 0 0 0 18Z" fill="none" stroke="currentColor" stroke-width="1.8" stroke-linecap="round" stroke-linejoin="round"/><path d="m15.5 8.5-2 5-5 2 2-5 5-2Z" fill="none" stroke="currentColor" stroke-width="1.8" stroke-linecap="round" stroke-linejoin="round"/></symbol>
    <symbol id="direction-signpost" viewBox="0 0 24 24"><path d="M12 21V4" fill="none" stroke="currentColor" stroke-width="1.8" stroke-linecap="round"/><path d="M6 5h9l3 3-3 3H6V5ZM18 13H9l-3 3 3 3h9v-6Z" fill="none" stroke="currentColor" stroke-width="1.8" stroke-linecap="round" stroke-linejoin="round"/></symbol>
    <symbol id="travel-plane" viewBox="0 0 24 24"><path d="M4 13h6l7-8a2 2 0 0 1 3 0 2 2 0 0 1 0 3l-8 7v5l-3 2-1-6-5-2 1-1Z" fill="none" stroke="currentColor" stroke-width="1.8" stroke-linecap="round" stroke-linejoin="round"/></symbol>
    <symbol id="travel-suitcase" viewBox="0 0 24 24"><path d="M8 7V5a2 2 0 0 1 2-2h4a2 2 0 0 1 2 2v2" fill="none" stroke="currentColor" stroke-width="1.8" stroke-linecap="round" stroke-linejoin="round"/><path d="M5 7h14a2 2 0 0 1 2 2v9a2 2 0 0 1-2 2H5a2 2 0 0 1-2-2V9a2 2 0 0 1 2-2ZM8 11v5M16 11v5" fill="none" stroke="currentColor" stroke-width="1.8" stroke-linecap="round" stroke-linejoin="round"/></symbol>
    <symbol id="reflection-cup" viewBox="0 0 24 24"><path d="M5 8h11v6a5 5 0 0 1-5 5h-1a5 5 0 0 1-5-5V8Z" fill="none" stroke="currentColor" stroke-width="1.8" stroke-linecap="round" stroke-linejoin="round"/><path d="M16 10h2a3 3 0 0 1 0 6h-2M8 5V3M12 5V3" fill="none" stroke="currentColor" stroke-width="1.8" stroke-linecap="round" stroke-linejoin="round"/></symbol>
    <symbol id="reflection-moon" viewBox="0 0 24 24"><path d="M18 16.5A8 8 0 0 1 7.5 6a8 8 0 1 0 10.5 10.5Z" fill="none" stroke="currentColor" stroke-width="1.8" stroke-linecap="round" stroke-linejoin="round"/><path d="M16 5h3M17.5 3.5v3" fill="none" stroke="currentColor" stroke-width="1.8" stroke-linecap="round"/></symbol>
    <symbol id="tracker-chart" viewBox="0 0 24 24"><path d="M4 20V5M4 20h16M7 16v-4M12 16V8M17 16v-6" fill="none" stroke="currentColor" stroke-width="1.8" stroke-linecap="round"/></symbol>
    <symbol id="tracker-checklist" viewBox="0 0 24 24"><path d="M6 5h13v16H6V5ZM9 5V3h7v2" fill="none" stroke="currentColor" stroke-width="1.8" stroke-linecap="round" stroke-linejoin="round"/><path d="m8.5 10.5 1.5 1.5 3-3M15 11h2M8.5 16.5 10 18l3-3M15 17h2" fill="none" stroke="currentColor" stroke-width="1.8" stroke-linecap="round" stroke-linejoin="round"/></symbol>
    <symbol id="begin-sunrise" viewBox="0 0 24 24"><path d="M4 19h16M7 16a5 5 0 0 1 10 0M12 6v4M5 12l3 2M19 12l-3 2" fill="none" stroke="currentColor" stroke-width="1.8" stroke-linecap="round" stroke-linejoin="round"/></symbol>
    <symbol id="begin-loop" viewBox="0 0 24 24"><path d="M7 7h8a5 5 0 0 1 0 10H9" fill="none" stroke="currentColor" stroke-width="1.8" stroke-linecap="round"/><path d="m9 4-3 3 3 3M15 20l3-3-3-3" fill="none" stroke="currentColor" stroke-width="1.8" stroke-linecap="round" stroke-linejoin="round"/></symbol>
  </defs>
</svg>
