<svg xmlns="http://www.w3.org/2000/svg" xmlns:xlink="http://www.w3.org/1999/xlink" width="2000" zoomAndPan="magnify" viewBox="530 345 440 580" height="2000" preserveAspectRatio="xMidYMid meet" version="1.0"><defs><clipPath id="2820ec86e9"><path d="M 538.5 636 L 957 636 L 957 915 L 538.5 915 Z M 538.5 636 " clip-rule="nonzero"/></clipPath><clipPath id="e21023b71f"><path d="M 538.5 352.5 L 819 352.5 L 819 631.5 L 538.5 631.5 Z M 538.5 352.5 " clip-rule="nonzero"/></clipPath></defs><g clip-path="url(#2820ec86e9)"><path fill="#2c5f54" d="M 829.753906 635.449219 L 538.804688 635.449219 L 538.804688 775.230469 C 538.804688 852.414062 601.378906 915.011719 678.585938 915.011719 L 961.195312 915.011719 L 961.195312 766.890625 C 961.195312 694.296875 902.335938 635.449219 829.753906 635.449219 Z M 829.753906 635.449219 " fill-opacity="1" fill-rule="nonzero"/></g><g clip-path="url(#e21023b71f)"><path fill="#c9a84c" d="M 678.585938 352.5 C 601.390625 352.5 538.804688 415.085938 538.804688 492.28125 L 538.804688 632.0625 L 678.585938 632.0625 C 755.785156 632.0625 818.367188 569.476562 818.367188 492.28125 L 818.367188 352.5 Z M 678.585938 352.5 " fill-opacity="1" fill-rule="nonzero"/></g></svg>