<svg xmlns="http://www.w3.org/2000/svg" xmlns:xlink="http://www.w3.org/1999/xlink" width="2000" zoomAndPan="magnify" viewBox="0 0 1500 1499.999933" height="2000" preserveAspectRatio="xMidYMid meet" version="1.0"><defs><g/><clipPath id="cac758dcb8"><path d="M 538.5 636 L 957 636 L 957 915 L 538.5 915 Z M 538.5 636 " clip-rule="nonzero"/></clipPath><clipPath id="ec76501933"><path d="M 538.5 352.5 L 819 352.5 L 819 631.5 L 538.5 631.5 Z M 538.5 352.5 " clip-rule="nonzero"/></clipPath></defs><g clip-path="url(#cac758dcb8)"><path fill="#2c5f54" d="M 829.753906 635.449219 L 538.804688 635.449219 L 538.804688 775.230469 C 538.804688 852.414062 601.378906 915.011719 678.585938 915.011719 L 961.195312 915.011719 L 961.195312 766.890625 C 961.195312 694.296875 902.335938 635.449219 829.753906 635.449219 Z M 829.753906 635.449219 " fill-opacity="1" fill-rule="nonzero"/></g><g clip-path="url(#ec76501933)"><path fill="#c9a84c" d="M 678.585938 352.5 C 601.390625 352.5 538.804688 415.085938 538.804688 492.28125 L 538.804688 632.0625 L 678.585938 632.0625 C 755.785156 632.0625 818.367188 569.476562 818.367188 492.28125 L 818.367188 352.5 Z M 678.585938 352.5 " fill-opacity="1" fill-rule="nonzero"/></g><g fill="#2c5f54" fill-opacity="1"><g transform="translate(539.624987, 982.799895)"><g><path d="M 3.59375 0 L 3.59375 -50.40625 L 29.65625 -50.40625 C 32.96875 -50.40625 35.894531 -49.882812 38.4375 -48.84375 C 40.988281 -47.8125 42.992188 -46.238281 44.453125 -44.125 C 45.921875 -42.019531 46.65625 -39.285156 46.65625 -35.921875 C 46.65625 -34.390625 46.175781 -32.769531 45.21875 -31.0625 C 44.257812 -29.363281 42.867188 -28.035156 41.046875 -27.078125 C 42.910156 -26.597656 44.46875 -25.734375 45.71875 -24.484375 C 46.96875 -23.234375 47.914062 -21.816406 48.5625 -20.234375 C 49.207031 -18.648438 49.53125 -17.085938 49.53125 -15.546875 C 49.53125 -12.765625 48.988281 -10.378906 47.90625 -8.390625 C 46.832031 -6.398438 45.382812 -4.789062 43.5625 -3.5625 C 41.738281 -2.34375 39.695312 -1.441406 37.4375 -0.859375 C 35.1875 -0.285156 32.859375 0 30.453125 0 Z M 13.3125 -30.3125 L 30.234375 -30.3125 C 32.160156 -30.363281 33.78125 -30.796875 35.09375 -31.609375 C 36.414062 -32.421875 37.078125 -33.910156 37.078125 -36.078125 C 37.078125 -37.609375 36.71875 -38.804688 36 -39.671875 C 35.28125 -40.535156 34.367188 -41.160156 33.265625 -41.546875 C 32.160156 -41.929688 30.984375 -42.125 29.734375 -42.125 L 13.3125 -42.125 Z M 13.3125 -8.28125 L 30.453125 -8.28125 C 32.085938 -8.332031 33.613281 -8.570312 35.03125 -9 C 36.445312 -9.425781 37.585938 -10.144531 38.453125 -11.15625 C 39.316406 -12.164062 39.75 -13.5625 39.75 -15.34375 C 39.75 -17.113281 39.289062 -18.503906 38.375 -19.515625 C 37.46875 -20.523438 36.304688 -21.234375 34.890625 -21.640625 C 33.472656 -22.046875 31.992188 -22.25 30.453125 -22.25 L 13.3125 -22.25 Z M 13.3125 -8.28125 "/></g></g></g><g fill="#2c5f54" fill-opacity="1"><g transform="translate(592.616952, 982.799895)"><g><path d="M 3.53125 0 L 3.53125 -50.40625 L 13.6875 -50.40625 L 13.6875 -8.640625 L 43.78125 -8.640625 L 43.78125 0 Z M 3.53125 0 "/></g></g></g><g fill="#2c5f54" fill-opacity="1"><g transform="translate(637.544919, 982.799895)"><g><path d="M 27.859375 0.71875 C 24.023438 0.71875 20.488281 0.0820312 17.25 -1.1875 C 14.007812 -2.457031 11.195312 -4.269531 8.8125 -6.625 C 6.4375 -8.976562 4.585938 -11.75 3.265625 -14.9375 C 1.953125 -18.132812 1.296875 -21.628906 1.296875 -25.421875 C 1.296875 -29.210938 1.953125 -32.691406 3.265625 -35.859375 C 4.585938 -39.023438 6.4375 -41.769531 8.8125 -44.09375 C 11.195312 -46.425781 14.007812 -48.226562 17.25 -49.5 C 20.488281 -50.769531 24.023438 -51.40625 27.859375 -51.40625 C 31.753906 -51.40625 35.320312 -50.769531 38.5625 -49.5 C 41.800781 -48.226562 44.609375 -46.425781 46.984375 -44.09375 C 49.359375 -41.769531 51.191406 -39.023438 52.484375 -35.859375 C 53.785156 -32.691406 54.4375 -29.210938 54.4375 -25.421875 C 54.4375 -21.628906 53.785156 -18.132812 52.484375 -14.9375 C 51.191406 -11.75 49.359375 -8.976562 46.984375 -6.625 C 44.609375 -4.269531 41.800781 -2.457031 38.5625 -1.1875 C 35.320312 0.0820312 31.753906 0.71875 27.859375 0.71875 Z M 27.859375 -7.84375 C 31.128906 -7.84375 34.007812 -8.609375 36.5 -10.140625 C 39 -11.679688 40.941406 -13.769531 42.328125 -16.40625 C 43.722656 -19.050781 44.421875 -22.054688 44.421875 -25.421875 C 44.421875 -28.773438 43.722656 -31.769531 42.328125 -34.40625 C 40.941406 -37.050781 39 -39.128906 36.5 -40.640625 C 34.007812 -42.148438 31.128906 -42.90625 27.859375 -42.90625 C 24.648438 -42.90625 21.796875 -42.148438 19.296875 -40.640625 C 16.796875 -39.128906 14.847656 -37.050781 13.453125 -34.40625 C 12.066406 -31.769531 11.375 -28.773438 11.375 -25.421875 C 11.375 -22.054688 12.066406 -19.050781 13.453125 -16.40625 C 14.847656 -13.769531 16.796875 -11.679688 19.296875 -10.140625 C 21.796875 -8.609375 24.648438 -7.84375 27.859375 -7.84375 Z M 27.859375 -7.84375 "/></g></g></g><g fill="#2c5f54" fill-opacity="1"><g transform="translate(697.376892, 982.799895)"><g><path d="M 27.859375 0.71875 C 24.023438 0.71875 20.488281 0.0820312 17.25 -1.1875 C 14.007812 -2.457031 11.195312 -4.269531 8.8125 -6.625 C 6.4375 -8.976562 4.585938 -11.75 3.265625 -14.9375 C 1.953125 -18.132812 1.296875 -21.628906 1.296875 -25.421875 C 1.296875 -29.210938 1.953125 -32.691406 3.265625 -35.859375 C 4.585938 -39.023438 6.4375 -41.769531 8.8125 -44.09375 C 11.195312 -46.425781 14.007812 -48.226562 17.25 -49.5 C 20.488281 -50.769531 24.023438 -51.40625 27.859375 -51.40625 C 31.753906 -51.40625 35.320312 -50.769531 38.5625 -49.5 C 41.800781 -48.226562 44.609375 -46.425781 46.984375 -44.09375 C 49.359375 -41.769531 51.191406 -39.023438 52.484375 -35.859375 C 53.785156 -32.691406 54.4375 -29.210938 54.4375 -25.421875 C 54.4375 -21.628906 53.785156 -18.132812 52.484375 -14.9375 C 51.191406 -11.75 49.359375 -8.976562 46.984375 -6.625 C 44.609375 -4.269531 41.800781 -2.457031 38.5625 -1.1875 C 35.320312 0.0820312 31.753906 0.71875 27.859375 0.71875 Z M 27.859375 -7.84375 C 31.128906 -7.84375 34.007812 -8.609375 36.5 -10.140625 C 39 -11.679688 40.941406 -13.769531 42.328125 -16.40625 C 43.722656 -19.050781 44.421875 -22.054688 44.421875 -25.421875 C 44.421875 -28.773438 43.722656 -31.769531 42.328125 -34.40625 C 40.941406 -37.050781 39 -39.128906 36.5 -40.640625 C 34.007812 -42.148438 31.128906 -42.90625 27.859375 -42.90625 C 24.648438 -42.90625 21.796875 -42.148438 19.296875 -40.640625 C 16.796875 -39.128906 14.847656 -37.050781 13.453125 -34.40625 C 12.066406 -31.769531 11.375 -28.773438 11.375 -25.421875 C 11.375 -22.054688 12.066406 -19.050781 13.453125 -16.40625 C 14.847656 -13.769531 16.796875 -11.679688 19.296875 -10.140625 C 21.796875 -8.609375 24.648438 -7.84375 27.859375 -7.84375 Z M 27.859375 -7.84375 "/></g></g></g><g fill="#2c5f54" fill-opacity="1"><g transform="translate(755.69686, 982.799895)"><g><path d="M 3.59375 0 L 3.59375 -50.40625 L 13.3125 -50.40625 L 32.96875 -24.546875 L 52.703125 -50.40625 L 62.203125 -50.40625 L 62.203125 0 L 52.203125 0 L 52.203125 -28.015625 L 52.5625 -35.421875 L 35.640625 -13.3125 L 30.09375 -13.3125 L 13.25 -35.203125 L 13.609375 -27.640625 L 13.609375 0 Z M 3.59375 0 "/></g></g></g><g fill="#2c5f54" fill-opacity="1"><g transform="translate(823.808815, 982.799895)"><g><path d="M 3.59375 0 L 3.59375 -50.40625 L 13.609375 -50.40625 L 13.609375 0 Z M 3.59375 0 "/></g></g></g><g fill="#2c5f54" fill-opacity="1"><g transform="translate(843.320806, 982.799895)"><g><path d="M 3.59375 0 L 3.59375 -50.40625 L 12.53125 -50.40625 L 38.65625 -20.09375 L 44.203125 -12.234375 L 44.421875 -12.3125 L 43.5625 -21.8125 L 43.5625 -50.40625 L 53.203125 -50.40625 L 53.203125 0 L 43.421875 0 L 17.203125 -31.03125 L 12.8125 -37.9375 L 12.453125 -37.875 L 13.390625 -29.875 L 13.390625 0 Z M 3.59375 0 "/></g></g></g><g fill="#2c5f54" fill-opacity="1"><g transform="translate(902.432785, 982.799895)"><g><path d="M 27.71875 1.015625 C 22.53125 1.015625 17.921875 -0.078125 13.890625 -2.265625 C 9.859375 -4.453125 6.691406 -7.5 4.390625 -11.40625 C 2.085938 -15.320312 0.9375 -19.875 0.9375 -25.0625 C 0.9375 -28.894531 1.59375 -32.421875 2.90625 -35.640625 C 4.226562 -38.859375 6.085938 -41.65625 8.484375 -44.03125 C 10.890625 -46.40625 13.722656 -48.25 16.984375 -49.5625 C 20.253906 -50.882812 23.832031 -51.546875 27.71875 -51.546875 C 30.84375 -51.546875 33.90625 -51.066406 36.90625 -50.109375 C 39.90625 -49.148438 42.628906 -47.601562 45.078125 -45.46875 C 47.523438 -43.332031 49.46875 -40.488281 50.90625 -36.9375 L 42.625 -34.125 C 41.46875 -36.382812 40.070312 -38.132812 38.4375 -39.375 C 36.8125 -40.625 35.070312 -41.488281 33.21875 -41.96875 C 31.375 -42.457031 29.539062 -42.703125 27.71875 -42.703125 C 24.457031 -42.703125 21.566406 -41.941406 19.046875 -40.421875 C 16.523438 -38.910156 14.566406 -36.832031 13.171875 -34.1875 C 11.785156 -31.550781 11.09375 -28.53125 11.09375 -25.125 C 11.09375 -21.71875 11.785156 -18.691406 13.171875 -16.046875 C 14.566406 -13.410156 16.523438 -11.347656 19.046875 -9.859375 C 21.566406 -8.367188 24.457031 -7.625 27.71875 -7.625 C 29.539062 -7.625 31.4375 -7.816406 33.40625 -8.203125 C 35.375 -8.585938 37.171875 -9.285156 38.796875 -10.296875 C 40.429688 -11.304688 41.679688 -12.695312 42.546875 -14.46875 L 42.546875 -20.734375 L 24.703125 -20.734375 L 24.703125 -28.875 L 51.484375 -28.875 L 51.484375 -12.8125 C 50.085938 -9.351562 48.140625 -6.613281 45.640625 -4.59375 C 43.148438 -2.582031 40.351562 -1.144531 37.25 -0.28125 C 34.15625 0.582031 30.976562 1.015625 27.71875 1.015625 Z M 27.71875 1.015625 "/></g></g></g><g fill="#2c5f54" fill-opacity="1"><g transform="translate(706.725548, 1010.474941)"><g><path d="M 1.765625 0 L 1.765625 -25.203125 L 4.640625 -25.203125 L 4.640625 -2.484375 L 17.5 -2.484375 L 17.5 0 Z M 1.765625 0 "/></g></g></g><g fill="#2c5f54" fill-opacity="1"><g transform="translate(726.741584, 1010.474941)"><g><path d="M -0.46875 0 L 9.859375 -25.421875 L 12.59375 -25.421875 L 22.9375 0 L 19.796875 0 L 17.171875 -6.625 L 5.296875 -6.625 L 2.65625 0 Z M 6.34375 -9.109375 L 16.125 -9.109375 L 13.3125 -16.265625 L 11.234375 -22.3125 L 9.140625 -16.265625 Z M 6.34375 -9.109375 "/></g></g></g><g fill="#2c5f54" fill-opacity="1"><g transform="translate(748.48563, 1010.474941)"><g><path d="M 8.171875 0 L 8.171875 -22.828125 L -0.1875 -22.828125 L -0.1875 -25.203125 L 19.40625 -25.203125 L 19.40625 -22.828125 L 11.015625 -22.828125 L 11.015625 0 Z M 8.171875 0 "/></g></g></g><g fill="#2c5f54" fill-opacity="1"><g transform="translate(768.825671, 1010.474941)"><g><path d="M 1.765625 0 L 1.765625 -25.203125 L 17.53125 -25.203125 L 17.53125 -22.71875 L 4.609375 -22.71875 L 4.609375 -13.828125 L 17.03125 -13.828125 L 17.03125 -11.34375 L 4.609375 -11.34375 L 4.609375 -2.515625 L 17.53125 -2.515625 L 17.53125 0 Z M 1.765625 0 "/></g></g></g></svg>